<svg width="235" height="83" viewBox="0 0 235 83" fill="none" xmlns="http://www.w3.org/2000/svg">
<rect width="234.983" height="83" fill="#00A0E3"/>
<path d="M53.8645 30.8669C51.0824 41.8139 46.0074 48.0357 36.2854 52.2913L36.5605 52.7315C48.3309 49.5032 53.6811 43.1052 56.8911 32.305C57.6249 32.2463 58.0529 32.1289 58.2975 31.8354L55.1791 29.2527L53.5893 30.8669H53.8645ZM42.0636 35.592L41.819 35.8268C43.5922 37.2355 45.7934 39.5834 46.4965 41.6378C49.6455 43.4867 51.541 37.3529 42.0636 35.592ZM32.1581 25.8777L31.883 26.1125C33.1059 27.1397 34.5733 28.8712 35.0014 30.3973C37.9057 32.0995 39.9846 26.7288 32.1581 25.8777ZM29.4678 32.5104L29.1926 32.7452C30.4461 33.655 31.9135 35.2692 32.4027 36.7072C35.3682 37.7441 37.0191 33.0093 29.4678 32.5104ZM44.6928 30.8669L44.3871 31.6887H55.2097V30.8669H44.6928ZM44.2648 25.5548C43.2253 30.1919 40.6878 36.6779 36.958 40.9041L37.2943 41.1976C42.461 37.5877 45.8239 31.6887 47.5666 27.169C48.3614 27.169 48.5755 26.9342 48.6672 26.582L44.2648 25.5548Z" fill="white"/>
<path d="M77.1198 24.1755V49.1803H80.2382V25.4375C81.0331 25.3201 81.2471 25.0266 81.3082 24.5863L77.1198 24.1755ZM68.6207 30.8963V49.151H71.7085V32.0995C72.5034 31.9821 72.7786 31.6887 72.8397 31.2778L68.6207 30.8963ZM78.5567 35.1811V36.0029H89.4404C89.899 36.0029 90.2353 35.8561 90.327 35.5333C88.9818 34.4181 86.8112 32.8333 86.8112 32.8333L84.8852 35.1811H78.5567ZM63.668 48.7988L63.9432 49.6499H91.2747C91.7333 49.6499 92.0696 49.5031 92.1613 49.1803C90.7855 48.0357 88.5844 46.4509 88.5844 46.4509L86.6278 48.7988H63.668Z" fill="white"/>
<path d="M120.838 36.0029L117.873 33.8311C116.497 35.7094 114.907 37.6464 113.806 38.8203L114.143 39.1725C115.794 38.4681 117.811 37.2942 119.554 36.179C120.165 36.4138 120.624 36.2377 120.838 36.0029ZM103.045 43.9563L105.154 46.8618C105.46 46.6857 105.644 46.3335 105.674 45.9813C107.539 43.9856 108.976 42.2247 109.954 40.9334L109.801 40.6399C107.325 42.0487 104.574 43.3987 103.045 43.9563ZM114.112 40.4932L113.837 40.728C115.335 41.8726 117.231 43.8389 117.873 45.4531C120.563 46.9498 122.183 41.9313 114.112 40.4932ZM102.617 50.0021V32.5104H122.092V31.6593H102.862L99.7738 30.3973V50.9706H100.232C101.455 50.9706 102.617 50.3543 102.617 50.0021ZM120.655 31.6593H120.96V47.302C120.96 47.6835 120.838 47.889 120.318 47.889C119.646 47.889 116.741 47.6835 116.741 47.6835V48.1238C118.178 48.2999 118.82 48.652 119.279 49.0629C119.707 49.4445 119.829 50.0901 119.921 50.9119C123.467 50.6184 123.895 49.5031 123.895 47.5662V33.0093C124.537 32.8919 124.996 32.6572 125.21 32.4224L122.061 30.1332L120.655 31.6593ZM113.317 49.4445V26.6701H110.413V50.2662H110.902C112.4 50.2662 113.317 49.6499 113.317 49.4445ZM122.611 24.3809L120.716 26.6701H98.184L98.4592 27.5212H125.21C125.638 27.5212 125.974 27.3744 126.066 27.0516C124.751 25.9364 122.611 24.3809 122.611 24.3809ZM103.84 34.5061L103.565 34.7409C104.879 35.7094 106.5 37.441 107.05 38.9084C109.679 40.2584 111.238 35.3866 103.84 34.5061Z" fill="white"/>
<path d="M148.475 33.3322L148.2 33.6257C151.288 35.4746 155.385 38.7616 157.066 41.403C160.612 42.8998 161.469 36.1496 148.475 33.3322ZM131.814 26.5527L132.089 27.4038H158.9C159.328 27.4038 159.665 27.2571 159.756 26.9342C158.411 25.819 156.18 24.2048 156.18 24.2048L154.223 26.5527H131.814ZM144.226 32.2169V50.9412H144.776C145.877 50.9412 147.161 50.413 147.191 50.2369V32.8333C147.772 32.7452 148.047 32.5691 148.139 32.305L145.051 31.1897L144.226 32.2169ZM146.121 26.7875C143.828 32.1876 137.867 38.2334 131.447 42.0487L131.661 42.3715C139.671 39.0258 146.794 33.2148 150.34 26.7875H146.121Z" fill="white"/>
<path d="M181.463 23.5005L181.157 23.7059C181.952 24.4396 182.686 25.7603 182.716 26.9342C185.162 28.7538 187.822 24.2048 181.463 23.5005ZM175.746 24.9972L171.557 23.7352C170.181 29.3408 167.613 35.0344 165.076 38.6442L165.504 38.9084C169.234 35.8268 172.352 31.1897 174.523 25.5548C175.226 25.5842 175.593 25.3201 175.746 24.9972ZM172.872 32.2169L170.243 31.2484L169.05 32.7746V50.9706H169.601C170.701 50.9706 171.894 50.3249 171.924 50.1195V32.7746C172.474 32.6865 172.78 32.4811 172.872 32.2169ZM179.598 35.68V31.131H188.8V30.2799H179.751L176.724 29.106V36.5018H177.121C178.314 36.5018 179.598 35.9148 179.598 35.68ZM185.345 47.4194V41.3443H182.41V47.3607C182.41 47.7129 182.258 47.8596 181.738 47.8596C181.065 47.8596 177.672 47.6542 177.672 47.6542V48.0651C179.261 48.2705 180.026 48.5933 180.515 49.0336C180.974 49.4738 181.157 50.1782 181.218 51.0586C184.795 50.7945 185.345 49.4151 185.345 47.4194ZM189.167 39.3486L187.608 41.1095H175.807L176.051 41.9606H191.215C191.643 41.9606 191.949 41.8139 192.041 41.491C190.91 40.5519 189.167 39.3486 189.167 39.3486ZM190.787 25.3788L189.045 27.4918H174.339L174.584 28.3429H193.08C193.508 28.3429 193.844 28.1962 193.906 27.8734C192.744 26.8462 190.787 25.3788 190.787 25.3788ZM187.669 30.2799H187.944V36.0909H188.464C189.411 36.0909 190.818 35.504 190.848 35.2985V31.5419C191.399 31.4245 191.827 31.2191 191.98 31.0136L189.045 28.8712L187.669 30.2799ZM188.892 34.3007H178.436V35.1518H188.892V34.3007ZM191.98 37.4996H175.318V38.3508H191.98V37.4996ZM190.359 37.4996H190.695C190.573 38.2627 190.267 39.7008 190.115 40.4345L190.451 40.5812C191.307 40.1704 192.652 39.3486 193.416 38.8497C194.028 38.791 194.364 38.7616 194.578 38.5562L191.888 36.0616L190.359 37.4996ZM175.807 36.0909H175.318C175.44 37.1181 174.614 38.3801 173.881 38.8497C173.116 39.2606 172.627 39.9943 172.964 40.7867C173.33 41.6671 174.614 41.6965 175.287 41.2269C176.235 40.4638 176.693 38.6149 175.807 36.0909Z" fill="white"/>
<path d="M53.8645 30.8669C51.0824 41.8139 46.0074 48.0357 36.2854 52.2913L36.5605 52.7315C48.3309 49.5032 53.6811 43.1052 56.8911 32.305C57.6249 32.2463 58.0529 32.1289 58.2975 31.8354L55.1791 29.2527L53.5893 30.8669H53.8645ZM42.0636 35.592L41.819 35.8268C43.5922 37.2355 45.7934 39.5834 46.4965 41.6378C49.6455 43.4867 51.541 37.3529 42.0636 35.592ZM32.1581 25.8777L31.883 26.1125C33.1059 27.1397 34.5733 28.8712 35.0014 30.3973C37.9057 32.0995 39.9846 26.7288 32.1581 25.8777ZM29.4678 32.5104L29.1926 32.7452C30.4461 33.655 31.9135 35.2692 32.4027 36.7072C35.3682 37.7441 37.0191 33.0093 29.4678 32.5104ZM44.6928 30.8669L44.3871 31.6887H55.2097V30.8669H44.6928ZM44.2648 25.5548C43.2253 30.1919 40.6878 36.6779 36.958 40.9041L37.2943 41.1976C42.461 37.5877 45.8239 31.6887 47.5666 27.169C48.3614 27.169 48.5755 26.9342 48.6672 26.582L44.2648 25.5548Z" fill="white"/>
<path d="M33.595 39.4366L31.8829 42.3715C26.0437 47.6835 24.7657 45.1302 27.5723 42.0487C30.3788 38.9671 33.595 39.4366 33.595 39.4366Z" fill="white"/>
<mask id="mask0_100_14" style="mask-type:alpha" maskUnits="userSpaceOnUse" x="6" y="1" width="225" height="80">
<path d="M6 1H230.966V39.5998V80.6636H6V1Z" fill="#D9D9D9"/>
</mask>
<g mask="url(#mask0_100_14)">
<path fill-rule="evenodd" clip-rule="evenodd" d="M31.3344 49.2298C30.5679 49.62 29.8309 50.0047 29.1256 50.3821L28.6411 49.5505C29.3526 49.1698 30.0956 48.782 30.8679 48.3889L31.3031 48.1674L31.7696 49.0083L31.3344 49.2298ZM34.9555 46.3908L35.3987 46.1844C36.867 45.5006 38.407 44.8114 40.0083 44.1257L40.4582 43.933L40.865 44.8018L40.4151 44.9945C38.8234 45.6762 37.2928 46.3612 35.8339 47.0406L35.3907 47.247L34.9555 46.3908ZM44.2242 42.3866L44.6801 42.2073C46.2166 41.6031 47.7948 41.0084 49.407 40.4296L49.8686 40.2639L50.2194 41.1548L49.7579 41.3205C48.1554 41.8957 46.5866 42.4869 45.0592 43.0876L44.6033 43.2669L44.2242 42.3866ZM53.7299 38.945L54.1968 38.7937C55.79 38.2775 57.4076 37.7816 59.0428 37.3115L59.515 37.1758L59.8038 38.0866L59.3316 38.2224C57.7077 38.6892 56.1009 39.1819 54.5179 39.6948L54.0509 39.8461L53.7299 38.945ZM63.4635 36.1166L63.9407 35.998C65.5828 35.59 67.2358 35.2126 68.8934 34.8713L69.3755 34.7721L69.5887 35.7016L69.1066 35.8009C67.4632 36.1392 65.8235 36.5135 64.1939 36.9184L63.7167 37.037L63.4635 36.1166ZM73.4103 34.0346L73.8969 33.9574C75.5848 33.6897 77.2711 33.4649 78.9489 33.2887L79.4394 33.2372L79.5534 34.1821L79.0629 34.2336C77.4041 34.4078 75.7357 34.6302 74.0642 34.8953L73.5776 34.9724L73.4103 34.0346ZM83.5421 32.9295L84.0352 32.9083C85.7583 32.8341 87.4653 32.819 89.1485 32.8698L89.6421 32.8847L89.6182 33.8347L89.1246 33.8198C87.4684 33.7699 85.7865 33.7846 84.0864 33.8578L83.5933 33.879L83.5421 32.9295ZM93.7681 33.1844L94.2585 33.2426C95.9815 33.4473 97.6693 33.7337 99.3127 34.1096L99.7939 34.2197L99.572 35.1444L99.0909 35.0343C97.4858 34.6671 95.8341 34.3867 94.1444 34.186L93.654 34.1277L93.7681 33.1844ZM103.77 35.3926L104.233 35.5631C105.851 36.1601 107.409 36.8649 108.897 37.6869L109.327 37.9241L108.84 38.7477L108.41 38.5104C106.97 37.7146 105.458 37.0307 103.885 36.4503L103.423 36.2798L103.77 35.3926ZM112.768 40.2171L113.149 40.5216C113.81 41.049 114.451 41.6072 115.069 42.1973L115.422 42.5329L114.729 43.2059L114.377 42.8703C113.779 42.3002 113.16 41.761 112.522 41.2514L112.141 40.947L112.768 40.2171ZM116.681 42.6689L117.033 43.0045C117.592 43.5376 118.176 44.0393 118.783 44.5106L119.169 44.8101L118.552 45.5481L118.166 45.2486C117.533 44.7571 116.924 44.2337 116.341 43.6775L115.989 43.3419L116.681 42.6689ZM122.262 46.764L122.7 46.987C124.063 47.6817 125.507 48.2686 127.024 48.7549L127.493 48.9054L127.187 49.807L126.718 49.6564C125.153 49.1548 123.658 48.5477 122.242 47.8263L121.805 47.6033L122.262 46.764ZM131.11 49.7979L131.596 49.8862C133.105 50.1605 134.666 50.3562 136.273 50.479L136.766 50.5167L136.695 51.4642L136.202 51.4265C134.563 51.3012 132.966 51.1013 131.42 50.8201L130.934 50.7318L131.11 49.7979ZM140.515 50.64L141.009 50.6367C142.556 50.6262 144.135 50.5592 145.74 50.4402L146.232 50.4037L146.315 51.3514L145.823 51.3879C144.197 51.5084 142.595 51.5765 141.023 51.5871L140.529 51.5904L140.515 50.64ZM149.977 50.0167L150.466 49.9529C152.01 49.7514 153.571 49.5084 155.146 49.2276L155.631 49.1411L155.817 50.0757L155.332 50.1622C153.743 50.4456 152.166 50.6911 150.605 50.8948L150.117 50.9586L149.977 50.0167ZM159.317 48.4047L159.797 48.2989C161.33 47.9617 162.87 47.5931 164.413 47.1967L164.889 47.0744L165.15 47.9928L164.674 48.1151C163.12 48.5143 161.569 48.8856 160.024 49.2256L159.544 49.3313L159.317 48.4047ZM168.509 46.083L168.981 45.9462C170.494 45.5075 172.006 45.0453 173.512 44.563L173.98 44.4133L174.297 45.3154L173.83 45.4651C172.315 45.9501 170.794 46.415 169.272 46.8564L168.8 46.9933L168.509 46.083ZM177.54 43.2231L178.003 43.0619C179.498 42.5418 180.983 42.0048 182.455 41.4541L182.914 41.2823L183.277 42.1685L182.818 42.3403C181.339 42.8936 179.847 43.4333 178.345 43.956L177.882 44.1173L177.54 43.2231ZM186.414 39.9291L186.869 39.7476C188.346 39.1585 189.804 38.5585 191.24 37.9512L191.691 37.7605L192.094 38.6312L191.643 38.8218C190.201 39.4317 188.736 40.0343 187.253 40.626L186.798 40.8075L186.414 39.9291ZM195.125 36.2681L195.572 36.0687C197.036 35.4149 198.471 34.7569 199.87 34.099L200.313 33.891L200.751 34.7456L200.309 34.9536C198.904 35.6143 197.463 36.275 195.992 36.9315L195.546 37.1309L195.125 36.2681ZM203.673 32.2707L204.111 32.0541C205.568 31.3338 206.975 30.6187 208.327 29.9146L208.76 29.6891L209.235 30.5257L208.802 30.7513C207.444 31.4586 206.03 32.1768 204.567 32.9002L204.129 33.1168L203.673 32.2707ZM212.043 27.9314L212.47 27.6961C213.173 27.3088 213.855 26.9272 214.515 26.5522L215.022 27.3716C214.358 27.7488 213.672 28.1326 212.965 28.5219L212.538 28.7572L212.043 27.9314Z" fill="white"/>
</g>
<g clip-path="url(#clip0_100_14)">
<path d="M211.235 21.6764C211.276 21.5433 211.357 21.4248 211.468 21.3356C211.579 21.2464 211.715 21.1905 211.859 21.1747L223.3 19.9229C223.416 19.9103 223.533 19.9294 223.637 19.978C223.742 20.0267 223.831 20.1027 223.892 20.1975C223.954 20.2923 223.986 20.4019 223.986 20.5137C223.985 20.6254 223.952 20.7348 223.889 20.829L217.697 30.1487C217.624 30.2578 217.522 30.3457 217.401 30.4029C217.28 30.4602 217.145 30.4847 217.011 30.4737C216.877 30.4627 216.748 30.4166 216.639 30.3405C216.53 30.2644 216.445 30.1611 216.393 30.0419L214.54 25.8044L211.387 22.3461C211.304 22.2558 211.248 22.1471 211.221 22.03C211.194 21.9129 211.199 21.7912 211.235 21.6764ZM215.391 25.7505L217.086 29.6275L222.995 20.7357L212.079 21.9299L214.964 25.0939L218.321 23.0813C218.411 23.0269 218.521 23.0094 218.625 23.0325C218.729 23.0556 218.82 23.1175 218.876 23.2046C218.933 23.2917 218.951 23.3968 218.927 23.4968C218.903 23.5968 218.839 23.6836 218.748 23.7379L215.391 25.7505Z" fill="white"/>
</g>
<defs>
<clipPath id="clip0_100_14">
<rect width="12.7603" height="12.5337" fill="white" transform="matrix(0.857685 -0.514175 0.545303 0.838239 209.987 21.232)"/>
</clipPath>
</defs>
</svg>
